<mxfile host="app.diagrams.net" modified="2023-10-05T06:29:16.474Z" agent="Mozilla/5.0 (Windows NT 10.0; Win64; x64) AppleWebKit/537.36 (KHTML, like Gecko) Chrome/117.0.0.0 Safari/537.36 Edg/117.0.2045.47" etag="DzqK7x_IbtOkL6kIEOfY" version="22.0.2" type="device">
  <diagram name="Seite-1" id="xoSiIJHebm6Wm_IsjXyR">
    <mxGraphModel dx="120" dy="79" grid="1" gridSize="10" guides="1" tooltips="1" connect="1" arrows="1" fold="1" page="1" pageScale="1" pageWidth="827" pageHeight="1169" math="0" shadow="0">
      <root>
        <mxCell id="0" />
        <mxCell id="1" parent="0" />
        <mxCell id="W2SCZCkLoWuOBcT4UsEh-1" value="&lt;font style=&quot;font-size: 28px;&quot;&gt;How The Web Works&lt;/font&gt;" style="ellipse;whiteSpace=wrap;html=1;" parent="1" vertex="1">
          <mxGeometry x="319" y="510" width="190" height="150" as="geometry" />
        </mxCell>
        <mxCell id="W2SCZCkLoWuOBcT4UsEh-2" value="" style="endArrow=none;html=1;rounded=0;" parent="1" target="W2SCZCkLoWuOBcT4UsEh-1" edge="1">
          <mxGeometry width="50" height="50" relative="1" as="geometry">
            <mxPoint x="260" y="720" as="sourcePoint" />
            <mxPoint x="340" y="640" as="targetPoint" />
            <Array as="points" />
          </mxGeometry>
        </mxCell>
        <mxCell id="W2SCZCkLoWuOBcT4UsEh-3" value="&lt;font style=&quot;font-size: 14px;&quot;&gt;Internet VS. Web&lt;/font&gt;" style="ellipse;whiteSpace=wrap;html=1;" parent="1" vertex="1">
          <mxGeometry x="170" y="690" width="120" height="80" as="geometry" />
        </mxCell>
        <mxCell id="W2SCZCkLoWuOBcT4UsEh-4" value="" style="endArrow=none;html=1;rounded=0;entryX=0.875;entryY=0.853;entryDx=0;entryDy=0;entryPerimeter=0;" parent="1" target="W2SCZCkLoWuOBcT4UsEh-1" edge="1">
          <mxGeometry width="50" height="50" relative="1" as="geometry">
            <mxPoint x="550" y="740" as="sourcePoint" />
            <mxPoint x="490" y="640" as="targetPoint" />
            <Array as="points" />
          </mxGeometry>
        </mxCell>
        <mxCell id="W2SCZCkLoWuOBcT4UsEh-5" value="&lt;font style=&quot;font-size: 14px;&quot;&gt;Serving Up Your Information&lt;/font&gt;" style="ellipse;whiteSpace=wrap;html=1;" parent="1" vertex="1">
          <mxGeometry x="509" y="690" width="120" height="80" as="geometry" />
        </mxCell>
        <mxCell id="W2SCZCkLoWuOBcT4UsEh-6" value="" style="endArrow=none;html=1;rounded=0;" parent="1" source="W2SCZCkLoWuOBcT4UsEh-7" edge="1">
          <mxGeometry width="50" height="50" relative="1" as="geometry">
            <mxPoint x="270" y="460" as="sourcePoint" />
            <mxPoint x="350" y="530" as="targetPoint" />
            <Array as="points" />
          </mxGeometry>
        </mxCell>
        <mxCell id="W2SCZCkLoWuOBcT4UsEh-8" value="" style="endArrow=none;html=1;rounded=0;" parent="1" target="W2SCZCkLoWuOBcT4UsEh-7" edge="1">
          <mxGeometry width="50" height="50" relative="1" as="geometry">
            <mxPoint x="270" y="460" as="sourcePoint" />
            <mxPoint x="350" y="530" as="targetPoint" />
            <Array as="points" />
          </mxGeometry>
        </mxCell>
        <mxCell id="W2SCZCkLoWuOBcT4UsEh-7" value="&lt;font style=&quot;font-size: 14px;&quot;&gt;A Word About Browsers&lt;/font&gt;" style="ellipse;whiteSpace=wrap;html=1;" parent="1" vertex="1">
          <mxGeometry x="180" y="390" width="120" height="80" as="geometry" />
        </mxCell>
        <mxCell id="W2SCZCkLoWuOBcT4UsEh-9" value="" style="endArrow=none;html=1;rounded=0;" parent="1" source="W2SCZCkLoWuOBcT4UsEh-1" edge="1">
          <mxGeometry width="50" height="50" relative="1" as="geometry">
            <mxPoint x="470" y="530" as="sourcePoint" />
            <mxPoint x="560" y="450" as="targetPoint" />
            <Array as="points" />
          </mxGeometry>
        </mxCell>
        <mxCell id="W2SCZCkLoWuOBcT4UsEh-10" value="&lt;font style=&quot;font-size: 14px;&quot;&gt;Wep Page Addresses&lt;/font&gt;" style="ellipse;whiteSpace=wrap;html=1;" parent="1" vertex="1">
          <mxGeometry x="500" y="390" width="120" height="80" as="geometry" />
        </mxCell>
        <mxCell id="W2SCZCkLoWuOBcT4UsEh-11" value="" style="endArrow=none;html=1;rounded=0;" parent="1" target="W2SCZCkLoWuOBcT4UsEh-3" edge="1">
          <mxGeometry width="50" height="50" relative="1" as="geometry">
            <mxPoint x="130" y="800" as="sourcePoint" />
            <mxPoint x="180" y="750" as="targetPoint" />
            <Array as="points">
              <mxPoint x="130" y="800" />
            </Array>
          </mxGeometry>
        </mxCell>
        <mxCell id="W2SCZCkLoWuOBcT4UsEh-12" value="Web: WWW" style="ellipse;whiteSpace=wrap;html=1;" parent="1" vertex="1">
          <mxGeometry x="90" y="780" width="50" height="40" as="geometry" />
        </mxCell>
        <mxCell id="W2SCZCkLoWuOBcT4UsEh-13" value="&lt;p style=&quot;line-height: 80%;&quot;&gt;&lt;font style=&quot;font-size: 8px;&quot;&gt;Hypertext-&lt;br&gt;links: HTTP&lt;/font&gt;&lt;/p&gt;" style="ellipse;whiteSpace=wrap;html=1;" parent="1" vertex="1">
          <mxGeometry x="150" y="810" width="50" height="40" as="geometry" />
        </mxCell>
        <mxCell id="W2SCZCkLoWuOBcT4UsEh-14" value="" style="endArrow=none;html=1;rounded=0;exitX=0.037;exitY=0.305;exitDx=0;exitDy=0;entryX=0.941;entryY=0.751;entryDx=0;entryDy=0;entryPerimeter=0;exitPerimeter=0;" parent="1" source="W2SCZCkLoWuOBcT4UsEh-13" edge="1" target="W2SCZCkLoWuOBcT4UsEh-12">
          <mxGeometry width="50" height="50" relative="1" as="geometry">
            <mxPoint x="170" y="810" as="sourcePoint" />
            <mxPoint x="190" y="760" as="targetPoint" />
            <Array as="points" />
          </mxGeometry>
        </mxCell>
        <mxCell id="W2SCZCkLoWuOBcT4UsEh-15" value="&lt;p style=&quot;line-height: 40%;&quot;&gt;&lt;span style=&quot;font-size: 6px;&quot;&gt;World Wide&lt;br&gt;Web&lt;br&gt;&lt;/span&gt;&lt;/p&gt;" style="ellipse;whiteSpace=wrap;html=1;" parent="1" vertex="1">
          <mxGeometry x="60" y="830" width="40" height="30" as="geometry" />
        </mxCell>
        <mxCell id="W2SCZCkLoWuOBcT4UsEh-17" value="" style="endArrow=none;html=1;rounded=0;exitX=0.5;exitY=0;exitDx=0;exitDy=0;entryX=0;entryY=1;entryDx=0;entryDy=0;" parent="1" source="W2SCZCkLoWuOBcT4UsEh-15" target="W2SCZCkLoWuOBcT4UsEh-12" edge="1">
          <mxGeometry width="50" height="50" relative="1" as="geometry">
            <mxPoint x="60" y="840" as="sourcePoint" />
            <mxPoint x="99" y="810" as="targetPoint" />
            <Array as="points" />
          </mxGeometry>
        </mxCell>
        <mxCell id="ii-MiULLkunS_prZY83--1" value="&lt;p style=&quot;line-height: 120%; font-size: 6px;&quot;&gt;&lt;font style=&quot;font-size: 6px;&quot;&gt;HyperText&lt;br&gt;Transfer&lt;br&gt;Protoco&lt;/font&gt;&lt;span style=&quot;font-size: 6px;&quot;&gt;l&lt;/span&gt;&lt;/p&gt;" style="ellipse;whiteSpace=wrap;html=1;" vertex="1" parent="1">
          <mxGeometry x="190" y="860" width="50" height="30" as="geometry" />
        </mxCell>
        <mxCell id="ii-MiULLkunS_prZY83--2" value="" style="endArrow=none;html=1;rounded=0;exitX=0.305;exitY=0.037;exitDx=0;exitDy=0;entryX=0.768;entryY=0.929;entryDx=0;entryDy=0;exitPerimeter=0;entryPerimeter=0;" edge="1" parent="1" source="ii-MiULLkunS_prZY83--1" target="W2SCZCkLoWuOBcT4UsEh-13">
          <mxGeometry width="50" height="50" relative="1" as="geometry">
            <mxPoint x="173" y="860" as="sourcePoint" />
            <mxPoint x="190" y="844" as="targetPoint" />
            <Array as="points" />
          </mxGeometry>
        </mxCell>
        <mxCell id="ii-MiULLkunS_prZY83--3" value="" style="endArrow=none;html=1;rounded=0;entryX=0.627;entryY=0.986;entryDx=0;entryDy=0;entryPerimeter=0;" edge="1" parent="1" target="W2SCZCkLoWuOBcT4UsEh-3">
          <mxGeometry width="50" height="50" relative="1" as="geometry">
            <mxPoint x="260" y="820" as="sourcePoint" />
            <mxPoint x="247.5" y="760" as="targetPoint" />
            <Array as="points" />
          </mxGeometry>
        </mxCell>
        <mxCell id="ii-MiULLkunS_prZY83--4" value="&lt;p style=&quot;line-height: 90%; font-size: 6px;&quot;&gt;&lt;font style=&quot;font-size: 6px;&quot;&gt;The internet is an international network of connected computers&lt;/font&gt;.&lt;/p&gt;" style="ellipse;whiteSpace=wrap;html=1;" vertex="1" parent="1">
          <mxGeometry x="240" y="805" width="70" height="50" as="geometry" />
        </mxCell>
        <mxCell id="ii-MiULLkunS_prZY83--5" value="" style="endArrow=none;html=1;rounded=0;exitX=0.022;exitY=0.358;exitDx=0;exitDy=0;exitPerimeter=0;" edge="1" parent="1" source="ii-MiULLkunS_prZY83--6">
          <mxGeometry width="50" height="50" relative="1" as="geometry">
            <mxPoint x="90" y="802" as="sourcePoint" />
            <mxPoint x="60" y="770" as="targetPoint" />
            <Array as="points" />
          </mxGeometry>
        </mxCell>
        <mxCell id="ii-MiULLkunS_prZY83--7" value="" style="endArrow=none;html=1;rounded=0;exitX=0.022;exitY=0.358;exitDx=0;exitDy=0;exitPerimeter=0;" edge="1" parent="1" source="W2SCZCkLoWuOBcT4UsEh-12" target="ii-MiULLkunS_prZY83--6">
          <mxGeometry width="50" height="50" relative="1" as="geometry">
            <mxPoint x="91" y="794" as="sourcePoint" />
            <mxPoint x="60" y="770" as="targetPoint" />
            <Array as="points" />
          </mxGeometry>
        </mxCell>
        <mxCell id="ii-MiULLkunS_prZY83--6" value="&lt;p style=&quot;line-height: 30%;&quot;&gt;&lt;font style=&quot;font-size: 5px;&quot;&gt;&lt;font style=&quot;font-size: 5px;&quot;&gt;&lt;font style=&quot;font-size: 5px;&quot;&gt;One of the ways information can be shared over the interne&lt;/font&gt;&lt;span style=&quot;&quot;&gt;t&lt;/span&gt;&lt;/font&gt;&lt;/font&gt;&lt;/p&gt;" style="ellipse;whiteSpace=wrap;html=1;" vertex="1" parent="1">
          <mxGeometry x="30" y="760" width="50" height="40" as="geometry" />
        </mxCell>
        <mxCell id="ii-MiULLkunS_prZY83--8" value="Servers" style="ellipse;whiteSpace=wrap;html=1;" vertex="1" parent="1">
          <mxGeometry x="480" y="780" width="50" height="40" as="geometry" />
        </mxCell>
        <mxCell id="ii-MiULLkunS_prZY83--11" value="" style="endArrow=none;html=1;rounded=0;entryX=0.303;entryY=0.956;entryDx=0;entryDy=0;entryPerimeter=0;exitX=0.878;exitY=0.17;exitDx=0;exitDy=0;exitPerimeter=0;" edge="1" parent="1" source="ii-MiULLkunS_prZY83--8" target="W2SCZCkLoWuOBcT4UsEh-5">
          <mxGeometry width="50" height="50" relative="1" as="geometry">
            <mxPoint x="520" y="790" as="sourcePoint" />
            <mxPoint x="570" y="740" as="targetPoint" />
          </mxGeometry>
        </mxCell>
        <mxCell id="ii-MiULLkunS_prZY83--13" value="" style="endArrow=none;html=1;rounded=0;entryX=0.811;entryY=0.892;entryDx=0;entryDy=0;entryPerimeter=0;" edge="1" parent="1" source="ii-MiULLkunS_prZY83--12" target="ii-MiULLkunS_prZY83--8">
          <mxGeometry width="50" height="50" relative="1" as="geometry">
            <mxPoint x="530" y="830" as="sourcePoint" />
            <mxPoint x="550" y="790" as="targetPoint" />
          </mxGeometry>
        </mxCell>
        <mxCell id="ii-MiULLkunS_prZY83--14" value="" style="endArrow=none;html=1;rounded=0;entryX=0.751;entryY=0.941;entryDx=0;entryDy=0;entryPerimeter=0;" edge="1" parent="1" target="ii-MiULLkunS_prZY83--12">
          <mxGeometry width="50" height="50" relative="1" as="geometry">
            <mxPoint x="530" y="830" as="sourcePoint" />
            <mxPoint x="518" y="818" as="targetPoint" />
          </mxGeometry>
        </mxCell>
        <mxCell id="ii-MiULLkunS_prZY83--12" value="&lt;p style=&quot;line-height: 20%;&quot;&gt;&lt;font style=&quot;font-size: 5px;&quot;&gt;The server is the software that allows the computer to communicate with other computers&lt;/font&gt;&lt;/p&gt;" style="ellipse;whiteSpace=wrap;html=1;" vertex="1" parent="1">
          <mxGeometry x="530" y="807.5" width="50" height="45" as="geometry" />
        </mxCell>
      </root>
    </mxGraphModel>
  </diagram>
</mxfile>
